<svg width="48" height="48" viewBox="0 0 48 48" fill="none" xmlns="http://www.w3.org/2000/svg">
<g clip-path="url(#clip0_124_824)">
<path d="M35.7808 0.920654C34.951 0.920654 34.1997 1.2544 33.6547 1.79965C33.1096 2.34462 32.7757 3.09106 32.7757 3.92084V41.0876C32.7757 41.5 32.6922 41.8978 32.54 42.2562C32.4663 42.4331 32.373 42.6048 32.265 42.762C32.211 42.8455 32.157 42.9191 32.0932 42.9927C32.0343 43.0713 31.9705 43.1401 31.9017 43.2087H31.8969C31.3518 43.7539 30.6005 44.0877 29.7706 44.0877H3.92224V3.92084C3.92224 3.09106 4.25618 2.34462 4.80124 1.79965C5.3463 1.2544 6.09752 0.920654 6.9274 0.920654H35.7808Z" fill="#E8F1F8"/>
<path opacity="0.12" d="M35.7808 0.920654C34.951 0.920654 34.1997 1.25469 33.6547 1.79965C33.1096 2.34462 32.7757 3.09106 32.7757 3.92084V41.0876C32.7757 41.5002 32.6922 41.8979 32.54 42.2564C32.4663 42.4332 32.373 42.6051 32.265 42.7621C32.211 42.8456 32.157 42.9192 32.0932 42.993C32.0342 43.0714 31.9705 43.1402 31.9016 43.209H31.8968C31.3517 43.754 30.6004 44.088 29.7705 44.088H3.92224V39.8552C17.3031 37.3509 27.4331 25.6052 27.4331 11.4977V0.920654H35.7808Z" fill="black"/>
<path d="M41.7862 35.033H32.7756V3.92084C32.7756 3.09106 33.1096 2.34462 33.6546 1.79965C34.1997 1.2544 34.9509 0.920654 35.7808 0.920654C37.4356 0.920654 38.7811 2.26597 38.7811 3.92084V32.0278C38.7811 33.6877 40.1266 35.033 41.7862 35.033Z" fill="#ACBADF"/>
<path d="M38.7822 13.4844V32.0285C38.7822 33.6872 40.1268 35.0318 41.7855 35.0318C43.4441 35.0318 44.7888 33.6872 44.7888 32.0285V13.4844H38.7822Z" fill="#E8F1F8"/>
<path d="M19.8515 10.636C19.8515 14.0153 17.114 16.7528 13.7365 16.7528C10.3589 16.7528 7.61975 14.0153 7.61975 10.636C7.61975 7.2585 10.3589 4.521 13.7365 4.521C17.114 4.521 19.8515 7.2585 19.8515 10.636Z" fill="#FDCF17"/>
<path d="M12.201 12.9439H14.1167C14.7538 12.9439 15.2701 12.4276 15.2701 11.7905C15.2701 11.1535 14.7538 10.6371 14.1167 10.6371H13.3545C12.7175 10.6371 12.2011 10.1208 12.2011 9.48373C12.2011 8.8467 12.7175 8.33032 13.3545 8.33032H15.2702" stroke="#F78721" stroke-width="1.5" stroke-miterlimit="10" stroke-linecap="round" stroke-linejoin="round"/>
<path d="M13.7354 13.9026V12.9438" stroke="#F78721" stroke-width="1.5" stroke-miterlimit="10" stroke-linecap="round" stroke-linejoin="round"/>
<path d="M13.7354 8.33012V7.37134" stroke="#F78721" stroke-width="1.5" stroke-miterlimit="10" stroke-linecap="round" stroke-linejoin="round"/>
<path d="M11.2649 31.9963V35.3178C11.2649 35.6709 10.9786 35.9572 10.6255 35.9572H8.25925C7.90609 35.9572 7.61987 35.6708 7.61987 35.3178V31.9963C7.61987 31.6432 7.90619 31.3569 8.25925 31.3569H10.6255C10.9786 31.3568 11.2649 31.6432 11.2649 31.9963Z" fill="#F14F4A"/>
<path opacity="0.12" d="M11.2644 31.9953V35.3178C11.2644 35.6716 10.9788 35.9572 10.625 35.9572H8.25913C7.90531 35.9572 7.61975 35.6716 7.61975 35.3178V35.2582C9.25241 35.2283 10.5674 33.8941 10.5674 32.253V31.356H10.625C10.9787 31.3559 11.2644 31.6436 11.2644 31.9953Z" fill="black"/>
<path d="M16.3303 26.5232V35.3177C16.3303 35.6708 16.044 35.957 15.6909 35.957H13.3247C12.9715 35.957 12.6853 35.6707 12.6853 35.3177V26.5232C12.6853 26.17 12.9716 25.8838 13.3247 25.8838H15.6909C16.0441 25.8838 16.3303 26.17 16.3303 26.5232Z" fill="#F14F4A"/>
<path opacity="0.12" d="M16.3298 26.522V35.3177C16.3298 35.6715 16.0443 35.957 15.6905 35.957H13.3247C12.9709 35.957 12.6853 35.6715 12.6853 35.3177V35.258C14.318 35.2281 15.633 33.894 15.633 32.2528V25.8826H15.6906C16.0443 25.8826 16.3298 26.1703 16.3298 26.522Z" fill="black"/>
<path d="M21.3957 28.9619V35.3176C21.3957 35.6707 21.1094 35.9569 20.7564 35.9569H18.3901C18.037 35.9569 17.7507 35.6706 17.7507 35.3176V28.9619C17.7507 28.6087 18.037 28.3225 18.3901 28.3225H20.7564C21.1094 28.3225 21.3957 28.6087 21.3957 28.9619Z" fill="#F14F4A"/>
<path opacity="0.12" d="M21.3954 28.9609V35.3177C21.3954 35.6715 21.1098 35.9571 20.756 35.9571H18.3901C18.0363 35.9571 17.7507 35.6715 17.7507 35.3177V35.2581C19.3834 35.2282 20.6984 33.894 20.6984 32.2528V28.3215H20.756C21.1098 28.3214 21.3954 28.6092 21.3954 28.9609Z" fill="black"/>
<path d="M26.4612 23.4887V35.3176C26.4612 35.6707 26.1749 35.9569 25.8218 35.9569H23.4555C23.1024 35.9569 22.8162 35.6706 22.8162 35.3176V23.4887C22.8162 23.1356 23.1025 22.8494 23.4555 22.8494H25.8218C26.1749 22.8494 26.4612 23.1356 26.4612 23.4887Z" fill="#F14F4A"/>
<path opacity="0.12" d="M26.4608 23.4879V35.3177C26.4608 35.6715 26.1752 35.9571 25.8214 35.9571H23.4557C23.1018 35.9571 22.8163 35.6715 22.8163 35.3177V35.2581C24.4489 35.2282 25.764 33.894 25.764 32.2528V22.8484H25.8215C26.1752 22.8484 26.4608 23.1361 26.4608 23.4879Z" fill="black"/>
<path d="M29.7706 44.0876H3.91731C2.26253 44.0876 0.921997 42.7423 0.921997 41.0874V38.8286H26.7752V41.0874C26.7752 42.7423 28.1157 44.0876 29.7706 44.0876Z" fill="#ACBADF"/>
<path d="M47.0793 24.6475V45.2791C47.0793 46.2728 46.2738 47.0782 45.2803 47.0782H30.3708C29.3772 47.0782 28.5718 46.2727 28.5718 45.2791V24.6475C28.5718 23.6538 29.3773 22.8484 30.3708 22.8484H45.2803C46.2739 22.8483 47.0793 23.6538 47.0793 24.6475Z" fill="#475DA9"/>
<path opacity="0.12" d="M47.0797 24.6477V45.2788C47.0797 46.2727 46.2745 47.0779 45.2806 47.0779H30.3706C29.3766 47.0779 28.5715 46.2727 28.5715 45.2788V44.5839H33.5573C39.6494 44.5839 44.5856 39.6477 44.5856 33.5577V22.8486H45.2805C46.2746 22.8485 47.0797 23.6537 47.0797 24.6477Z" fill="black"/>
<path d="M44.6058 30.6358V25.9024C44.6058 25.5298 44.3037 25.2278 43.9312 25.2278H31.7205C31.348 25.2278 31.0459 25.5298 31.0459 25.9024V30.6358C31.0459 31.0083 31.348 31.3104 31.7205 31.3104H43.9312C44.3037 31.3104 44.6058 31.0083 44.6058 30.6358Z" fill="#ACBADF"/>
<path d="M34.5158 34.0285V35.1281C34.5158 35.6125 34.1232 36.0051 33.6389 36.0051H31.9222C31.4379 36.0051 31.0453 35.6125 31.0453 35.1281V34.0285C31.0453 33.5442 31.4379 33.1516 31.9222 33.1516H33.6389C34.1233 33.1517 34.5158 33.5442 34.5158 34.0285Z" fill="#F78721"/>
<path d="M39.5607 34.0285V35.1281C39.5607 35.6125 39.1681 36.0051 38.6838 36.0051H36.9671C36.4828 36.0051 36.0902 35.6125 36.0902 35.1281V34.0285C36.0902 33.5442 36.4828 33.1516 36.9671 33.1516H38.6838C39.1681 33.1517 39.5607 33.5442 39.5607 34.0285Z" fill="#E8F1F8"/>
<path d="M44.6058 34.0285V35.1281C44.6058 35.6125 44.2132 36.0051 43.7288 36.0051H42.0122C41.5279 36.0051 41.1353 35.6125 41.1353 35.1281V34.0285C41.1353 33.5442 41.5279 33.1516 42.0122 33.1516H43.7288C44.2132 33.1517 44.6058 33.5442 44.6058 34.0285Z" fill="#E8F1F8"/>
<path d="M34.5158 38.375V39.4746C34.5158 39.9589 34.1232 40.3515 33.6389 40.3515H31.9222C31.4379 40.3515 31.0453 39.9589 31.0453 39.4746V38.375C31.0453 37.8907 31.4379 37.498 31.9222 37.498H33.6389C34.1233 37.4981 34.5158 37.8907 34.5158 38.375Z" fill="#E8F1F8"/>
<path d="M39.5607 38.375V39.4746C39.5607 39.9589 39.1681 40.3515 38.6838 40.3515H36.9671C36.4828 40.3515 36.0902 39.9589 36.0902 39.4746V38.375C36.0902 37.8907 36.4828 37.498 36.9671 37.498H38.6838C39.1681 37.4981 39.5607 37.8907 39.5607 38.375Z" fill="#E8F1F8"/>
<path d="M34.5158 42.7217V43.8213C34.5158 44.3056 34.1232 44.6982 33.6389 44.6982H31.9222C31.4379 44.6982 31.0453 44.3056 31.0453 43.8213V42.7217C31.0453 42.2374 31.4379 41.8447 31.9222 41.8447H33.6389C34.1233 41.8448 34.5158 42.2374 34.5158 42.7217Z" fill="#E8F1F8"/>
<path d="M39.5607 42.7217V43.8213C39.5607 44.3056 39.1681 44.6982 38.6838 44.6982H36.9671C36.4828 44.6982 36.0902 44.3056 36.0902 43.8213V42.7217C36.0902 42.2374 36.4828 41.8447 36.9671 41.8447H38.6838C39.1681 41.8448 39.5607 42.2374 39.5607 42.7217Z" fill="#E8F1F8"/>
<path d="M44.605 38.3739V43.8196C44.605 44.3057 44.2122 44.6986 43.731 44.6986H42.0123C41.5262 44.6986 41.1334 44.3058 41.1334 43.8196V38.3739C41.1334 37.8927 41.5262 37.5 42.0123 37.5H43.731C44.2122 37.5 44.605 37.8928 44.605 38.3739Z" fill="#FDCF17"/>
<path d="M13.7364 17.121C17.3113 17.121 20.2197 14.2122 20.2197 10.6364C20.2197 7.06148 17.3113 4.15308 13.7364 4.15308C10.1606 4.15308 7.25122 7.06139 7.25122 10.6364C7.25122 14.2122 10.1606 17.121 13.7364 17.121ZM13.7364 4.88967C16.9051 4.88967 19.4831 7.46761 19.4831 10.6364C19.4831 13.806 16.9051 16.3845 13.7364 16.3845C10.5667 16.3845 7.98781 13.806 7.98781 10.6364C7.98781 7.46761 10.5667 4.88967 13.7364 4.88967Z" fill="black"/>
<path d="M14.1168 12.5755H12.2011C11.9978 12.5755 11.8329 12.7405 11.8329 12.9438C11.8329 13.1471 11.9979 13.312 12.2011 13.312H13.3674V13.9028C13.3674 14.1062 13.5324 14.2711 13.7356 14.2711C13.939 14.2711 14.1039 14.1061 14.1039 13.9028V13.312H14.1168C14.956 13.312 15.6384 12.6296 15.6384 11.7905C15.6384 10.9513 14.956 10.2684 14.1168 10.2684H13.3548C12.9218 10.2684 12.5694 9.91649 12.5694 9.48346C12.5694 9.05043 12.9219 8.69849 13.3548 8.69849H15.27C15.4734 8.69849 15.6383 8.53349 15.6383 8.33024C15.6383 8.12699 15.4733 7.96199 15.27 7.96199H14.1038V7.37118C14.1038 7.16784 13.9388 7.00293 13.7355 7.00293C13.5322 7.00293 13.3673 7.16793 13.3673 7.37118V7.96199H13.3548C12.5156 7.96199 11.8328 8.6444 11.8328 9.48355C11.8328 10.3227 12.5156 11.0051 13.3548 11.0051H14.1168C14.5498 11.0051 14.9018 11.3576 14.9018 11.7906C14.9018 12.2236 14.5497 12.5755 14.1168 12.5755Z" fill="black"/>
<path d="M10.6252 30.9885H8.25922C7.70347 30.9885 7.25122 31.4407 7.25122 31.9961V35.3178C7.25122 35.8731 7.70338 36.3253 8.25922 36.3253H10.6252C11.1809 36.3253 11.6332 35.8732 11.6332 35.3178V31.9961C11.6332 31.4408 11.181 30.9885 10.6252 30.9885ZM10.8966 35.3177C10.8966 35.4673 10.7748 35.5886 10.6252 35.5886H8.25922C8.1096 35.5886 7.98781 35.4673 7.98781 35.3177V31.9961C7.98781 31.8464 8.1096 31.7251 8.25922 31.7251H10.6252C10.7748 31.7251 10.8966 31.8464 10.8966 31.9961V35.3177Z" fill="black"/>
<path d="M15.691 25.5151H13.3245C12.7693 25.5151 12.317 25.9673 12.317 26.5231V35.3177C12.317 35.873 12.7692 36.3253 13.3245 36.3253H15.691C16.2463 36.3253 16.6985 35.8731 16.6985 35.3177V26.5231C16.6985 25.9673 16.2463 25.5151 15.691 25.5151ZM15.9619 35.3176C15.9619 35.4673 15.8406 35.5886 15.691 35.5886H13.3245C13.1749 35.5886 13.0536 35.4673 13.0536 35.3176V26.523C13.0536 26.3734 13.1749 26.2516 13.3245 26.2516H15.691C15.8406 26.2516 15.9619 26.3734 15.9619 26.523V35.3176Z" fill="black"/>
<path d="M20.7563 27.9541H18.3903C17.8346 27.9541 17.3823 28.4063 17.3823 28.9621V35.3178C17.3823 35.8731 17.8345 36.3253 18.3903 36.3253H20.7563C21.312 36.3253 21.7643 35.8732 21.7643 35.3178V28.9621C21.7642 28.4063 21.312 27.9541 20.7563 27.9541ZM21.0277 35.3177C21.0277 35.4673 20.9059 35.5886 20.7563 35.5886H18.3903C18.2407 35.5886 18.1189 35.4673 18.1189 35.3177V28.962C18.1189 28.8124 18.2407 28.6906 18.3903 28.6906H20.7563C20.9059 28.6906 21.0277 28.8124 21.0277 28.962V35.3177Z" fill="black"/>
<path d="M25.822 22.4812H23.4555C22.9002 22.4812 22.448 22.9334 22.448 23.4887V35.3178C22.448 35.8731 22.9002 36.3254 23.4555 36.3254H25.822C26.3772 36.3254 26.8295 35.8732 26.8295 35.3178V23.4887C26.8295 22.9335 26.3773 22.4812 25.822 22.4812ZM26.0929 35.3177C26.0929 35.4674 25.9716 35.5887 25.822 35.5887H23.4555C23.3059 35.5887 23.1846 35.4674 23.1846 35.3177V23.4887C23.1846 23.3391 23.3059 23.2178 23.4555 23.2178H25.822C25.9716 23.2178 26.0929 23.3391 26.0929 23.4887V35.3177Z" fill="black"/>
<path d="M16.3302 19.1858H7.61959C7.41625 19.1858 7.25134 19.3508 7.25134 19.554C7.25134 19.7574 7.41634 19.9223 7.61959 19.9223H16.3303C16.5336 19.9223 16.6985 19.7573 16.6985 19.554C16.6985 19.3508 16.5335 19.1858 16.3302 19.1858Z" fill="black"/>
<path d="M13.4962 23.2177C13.6996 23.2177 13.8645 23.0527 13.8645 22.8495C13.8645 22.6461 13.6995 22.4812 13.4962 22.4812H7.61959C7.41625 22.4812 7.25134 22.6462 7.25134 22.8495C7.25134 23.0528 7.41634 23.2177 7.61959 23.2177H13.4962Z" fill="black"/>
<path d="M45.2804 22.4802H45.1581V13.4828C45.1581 13.2794 44.9931 13.1145 44.7899 13.1145H39.1477V3.92243C39.1477 2.06477 37.6367 0.553711 35.7795 0.553711H6.92565C5.04325 0.553711 3.55215 2.07715 3.55215 3.92243V38.462H0.920496C0.717152 38.462 0.552246 38.627 0.552246 38.8302V41.0889C0.552246 42.9465 2.06087 44.4576 3.9205 44.4576H28.2034V45.279C28.2034 46.4741 29.1759 47.4465 30.3709 47.4465H45.2804C46.4754 47.4465 47.4479 46.4741 47.4479 45.279V24.6473C47.4479 23.4522 46.4754 22.4802 45.2804 22.4802ZM39.1525 13.8511H44.4215V22.4802H39.1525V13.8511ZM35.7795 1.2903C37.2305 1.2903 38.4111 2.4709 38.4111 3.92243V22.4802H33.1426V3.92243C33.1426 2.47446 34.312 1.2903 35.7795 1.2903ZM3.9205 43.721H3.91571C2.46709 43.721 1.28884 42.5404 1.28884 41.0889V39.1986H26.4052V41.0889C26.4052 42.1271 26.8833 43.0904 27.6712 43.721H3.9205ZM28.2033 24.6473V43.1931C27.5474 42.702 27.1416 41.9295 27.1416 41.0889V38.8302C27.1416 38.6269 26.9766 38.462 26.7734 38.462H4.28875V3.92243C4.28875 2.47146 5.46221 1.2903 6.92565 1.2903H33.672C32.9169 1.87962 32.406 2.8474 32.406 3.92243V22.4802H30.3708C29.1759 22.4802 28.2033 23.4522 28.2033 24.6473ZM46.7113 45.279C46.7113 46.0678 46.0692 46.7099 45.2804 46.7099H30.3708C29.582 46.7099 28.9399 46.0678 28.9399 45.279V24.6473C28.9399 23.8585 29.582 23.2168 30.3708 23.2168H45.2804C46.0692 23.2168 46.7113 23.8585 46.7113 24.6473V45.279Z" fill="black"/>
<path d="M43.931 24.8596H31.7202C31.1452 24.8596 30.6772 25.3276 30.6772 25.9026V30.6356C30.6772 31.2105 31.1452 31.6785 31.7202 31.6785H43.931C44.5059 31.6785 44.9739 31.2105 44.9739 30.6356V25.9026C44.9739 25.3276 44.5059 24.8596 43.931 24.8596ZM44.2373 30.6356C44.2373 30.8043 44.0997 30.9419 43.931 30.9419H31.7202C31.5515 30.9419 31.4138 30.8043 31.4138 30.6356V25.9026C31.4138 25.7338 31.5515 25.5962 31.7202 25.5962H43.931C44.0997 25.5962 44.2373 25.7338 44.2373 25.9026V30.6356Z" fill="black"/>
<path d="M33.6389 32.7834H31.9222C31.2359 32.7834 30.6772 33.3421 30.6772 34.0288V35.1284C30.6772 35.8147 31.2359 36.3733 31.9222 36.3733H33.6389C34.3256 36.3733 34.8843 35.8147 34.8843 35.1284V34.0288C34.8842 33.3421 34.3255 32.7834 33.6389 32.7834ZM34.1477 35.1283C34.1477 35.4084 33.9194 35.6366 33.6389 35.6366H31.9222C31.6421 35.6366 31.4138 35.4084 31.4138 35.1283V34.0287C31.4138 33.7482 31.6421 33.5199 31.9222 33.5199H33.6389C33.9194 33.5199 34.1477 33.7482 34.1477 34.0287V35.1283Z" fill="black"/>
<path d="M39.1644 32.8803C39.1623 32.8794 39.1601 32.8791 39.158 32.8784C39.1571 32.8779 39.1562 32.8779 39.1554 32.8775C39.1521 32.8765 39.1492 32.8758 39.1461 32.8746C39.0029 32.817 38.8475 32.7834 38.684 32.7834H36.9673C36.2806 32.7834 35.7219 33.3421 35.7219 34.0288V35.1284C35.7219 35.8147 36.2806 36.3733 36.9673 36.3733H38.684C39.3703 36.3733 39.929 35.8147 39.929 35.1284V34.0288C39.9289 33.5123 39.6128 33.0687 39.1644 32.8803ZM39.1923 34.0355C39.1923 34.0364 39.1918 34.0369 39.1918 34.0379V34.0427C39.1918 34.0436 39.1923 34.0441 39.1923 34.0451V35.1284C39.1923 35.4084 38.964 35.6367 38.684 35.6367H36.9672C36.6867 35.6367 36.4584 35.4084 36.4584 35.1284V34.0288C36.4584 33.7483 36.6867 33.52 36.9672 33.52H38.684C38.964 33.52 39.1923 33.7483 39.1923 34.0288V34.0355Z" fill="black"/>
<path d="M43.7286 32.7834H42.0123C41.3256 32.7834 40.767 33.3421 40.767 34.0288V35.1284C40.767 35.8147 41.3256 36.3733 42.0123 36.3733H43.7286C44.4153 36.3733 44.974 35.8147 44.974 35.1284V34.0288C44.974 33.3421 44.4153 32.7834 43.7286 32.7834ZM44.2374 35.1283C44.2374 35.4084 44.0091 35.6366 43.7286 35.6366H42.0123C41.7318 35.6366 41.5036 35.4084 41.5036 35.1283V34.0287C41.5036 33.7482 41.7318 33.5199 42.0123 33.5199H43.7286C44.0091 33.5199 44.2374 33.7482 44.2374 34.0287V35.1283Z" fill="black"/>
<path d="M33.6389 37.1299H31.9222C31.2359 37.1299 30.6772 37.6885 30.6772 38.3753V39.4749C30.6772 40.1611 31.2359 40.7198 31.9222 40.7198H33.6389C34.3256 40.7198 34.8843 40.1611 34.8843 39.4749V38.3753C34.8842 37.6885 34.3255 37.1299 33.6389 37.1299ZM34.1477 39.4748C34.1477 39.7548 33.9194 39.9831 33.6389 39.9831H31.9222C31.6421 39.9831 31.4138 39.7548 31.4138 39.4748V38.3752C31.4138 38.0947 31.6421 37.8664 31.9222 37.8664H33.6389C33.9194 37.8664 34.1477 38.0947 34.1477 38.3752V39.4748Z" fill="black"/>
<path d="M38.684 37.1299H36.9673C36.2806 37.1299 35.7219 37.6885 35.7219 38.3753V39.4749C35.7219 40.1611 36.2806 40.7198 36.9673 40.7198H38.684C39.3703 40.7198 39.929 40.1611 39.929 39.4749V38.3753C39.9289 37.6885 39.3702 37.1299 38.684 37.1299ZM39.1923 39.4748C39.1923 39.7548 38.964 39.9831 38.684 39.9831H36.9672C36.6867 39.9831 36.4584 39.7548 36.4584 39.4748V38.3752C36.4584 38.0947 36.6867 37.8664 36.9672 37.8664H38.684C38.964 37.8664 39.1923 38.0947 39.1923 38.3752V39.4748Z" fill="black"/>
<path d="M33.6389 41.4763H31.9222C31.2359 41.4763 30.6772 42.035 30.6772 42.7217V43.8213C30.6772 44.508 31.2359 45.0667 31.9222 45.0667H33.6389C34.3256 45.0667 34.8843 44.508 34.8843 43.8213V42.7217C34.8842 42.035 34.3255 41.4763 33.6389 41.4763ZM34.1477 43.8212C34.1477 44.1017 33.9194 44.33 33.6389 44.33H31.9222C31.6421 44.33 31.4138 44.1017 31.4138 43.8212V42.7216C31.4138 42.4411 31.6421 42.2128 31.9222 42.2128H33.6389C33.9194 42.2128 34.1477 42.4411 34.1477 42.7216V43.8212Z" fill="black"/>
<path d="M38.684 41.4763H36.9673C36.2806 41.4763 35.7219 42.035 35.7219 42.7217V43.8213C35.7219 44.508 36.2806 45.0667 36.9673 45.0667H38.684C39.3703 45.0667 39.929 44.508 39.929 43.8213V42.7217C39.9289 42.035 39.3702 41.4763 38.684 41.4763ZM39.1923 43.8212C39.1923 44.1017 38.964 44.33 38.684 44.33H36.9672C36.6867 44.33 36.4584 44.1017 36.4584 43.8212V42.7216C36.4584 42.4411 36.6867 42.2128 36.9672 42.2128H38.684C38.964 42.2128 39.1923 42.4411 39.1923 42.7216V43.8212Z" fill="black"/>
<path d="M43.731 37.1318H42.0124C41.3247 37.1318 40.7651 37.6891 40.7651 38.3743V43.8199C40.7651 44.5075 41.3247 45.0671 42.0124 45.0671H43.731C44.4162 45.0671 44.9735 44.5075 44.9735 43.8199V38.3743C44.9735 37.6891 44.4162 37.1318 43.731 37.1318ZM44.2369 43.8199C44.2369 44.1013 44.0101 44.3305 43.731 44.3305H42.0124C41.7309 44.3305 41.5017 44.1013 41.5017 43.8199V38.3743C41.5017 38.0952 41.7309 37.8684 42.0124 37.8684H43.731C44.0101 37.8684 44.2369 38.0952 44.2369 38.3743V43.8199Z" fill="black"/>
<path d="M41.671 26.0532C40.8697 26.0532 40.2175 26.7053 40.2175 27.5067V29.0317C40.2175 29.8329 40.8697 30.4852 41.671 30.4852C42.4723 30.4852 43.1245 29.833 43.1245 29.0317V27.5067C43.1244 26.7053 42.4723 26.0532 41.671 26.0532ZM42.3879 29.0316C42.3879 29.4267 42.0662 29.7485 41.671 29.7485C41.2759 29.7485 40.9541 29.4267 40.9541 29.0316V27.5066C40.9541 27.1115 41.2759 26.7897 41.671 26.7897C42.0662 26.7897 42.3879 27.1115 42.3879 27.5066V29.0316Z" fill="black"/>
</g>
<defs>
<clipPath id="clip0_124_824">
<rect width="48" height="48" fill="white"/>
</clipPath>
</defs>
</svg>
