<svg width="62" height="62" viewBox="0 0 62 62" fill="none" xmlns="http://www.w3.org/2000/svg">
<path d="M39.2495 47.5715H31.2417V19.6172C31.2417 17.8528 32.6721 16.4229 34.436 16.4229H36.0552C37.8196 16.4229 39.2495 17.8528 39.2495 19.6172V47.5715Z" fill="#ABEBF4"/>
<path d="M39.2495 33.9353C36.8158 35.0753 34.138 36.072 31.2417 36.7881V47.5716H39.2495V33.9353Z" fill="#8ED7E8"/>
<path d="M27.7631 47.5716H19.7552V26.6738C19.7552 25.1355 21.0021 23.8882 22.5404 23.8882H24.9774C26.5157 23.8882 27.7631 25.1355 27.7631 26.6738V47.5716Z" fill="#B2E59C"/>
<path d="M50.7365 43.1068H42.7286V10.8508C42.7286 9.09772 44.1496 7.67676 45.9026 7.67676H47.562C49.315 7.67676 50.7365 9.09772 50.7365 10.8508V43.1068Z" fill="#FFDE55"/>
<path d="M50.7365 26.4705C48.7114 28.2065 46.0124 30.2499 42.7281 32.1283V43.1067H50.7365V26.4705Z" fill="#FFCD00"/>
<path d="M16.2236 37.3888L32.3249 28.8422C34.3348 27.7751 36.681 29.5281 36.2264 31.7579C35.8939 33.388 35.1375 35.1079 33.5562 36.3884L31.9058 37.7256C31.0861 38.3892 31.5553 39.7151 32.6101 39.7151L39.2273 39.718C41.3852 39.7189 43.4911 39.0529 45.256 37.8117L52.6512 32.6113C54.0457 31.6307 55.9459 31.8057 57.1374 33.0252C58.5617 34.4825 58.4325 36.8472 56.8578 38.1409L47.1712 46.1005C45.9589 47.0967 44.5379 47.8076 43.0134 48.1809L21.7817 53.3794L16.2236 37.3888Z" fill="#FFE2D9"/>
<path d="M25.1439 45.7821C19.0462 43.9926 19.5003 35.6494 19.5003 35.6494L16.2236 37.3887L21.7817 53.3793L37.9653 49.4168C34.5557 48.4693 29.07 46.9339 25.1439 45.7821Z" fill="#FFCFC2"/>
<path d="M16.2237 37.3887L22.2401 53.4455C23.2372 56.1067 21.6578 59.0357 18.8868 59.6653L13.1329 60.9722C10.6619 61.5333 8.1922 60.0305 7.55456 57.5783L4.45578 45.6557C3.79591 43.117 5.28215 40.5154 7.80432 39.7949L16.2237 37.3887Z" fill="#8ED7E8"/>
<path d="M22.2401 53.4457L21.3021 50.942C18.8958 49.8205 16.2894 49.5977 14.1859 49.6819C11.4461 49.7926 9.18413 47.5755 9.27353 44.8353C9.37145 41.8358 10.0001 39.1675 10.0001 39.1675L7.80432 39.7947C5.28215 40.5156 3.79591 43.1172 4.45578 45.656L7.55456 57.5781C8.1922 60.0307 10.6623 61.5335 13.1329 60.9725L18.8868 59.6655C21.6578 59.0359 23.2372 56.1065 22.2401 53.4457Z" fill="#7AC1DD"/>
<path d="M17.0032 54.3453C17.0032 55.8202 15.8079 57.0155 14.3334 57.0155C12.859 57.0155 11.6637 55.8202 11.6637 54.3453C11.6637 52.8709 12.859 51.6755 14.3334 51.6755C15.8079 51.6755 17.0032 52.8709 17.0032 54.3453Z" fill="#FFEB99"/>
<path d="M37.1758 0.908203H29.9134C28.8723 0.908203 28.0279 1.75255 28.0279 2.79368C28.0279 3.83528 28.8723 4.67915 29.9134 4.67915H32.498L24.924 11.9704L21.3328 10.1128C20.6015 9.73436 19.7084 9.87485 19.128 10.4595L4.48126 25.2188C3.7476 25.9582 3.75185 27.1521 4.49119 27.8857C4.8592 28.2504 5.33932 28.4325 5.81944 28.4325C6.30477 28.4325 6.78962 28.2466 7.1581 27.8753L20.8299 14.0985L24.3918 15.9409C25.1094 16.3118 25.9835 16.1845 26.5658 15.6245L35.2903 7.22639V10.1199C35.2903 11.1615 36.1342 12.0058 37.1758 12.0058C38.2169 12.0058 39.0612 11.1615 39.0612 10.1199V2.79368C39.0612 2.79179 39.0608 2.78989 39.0608 2.788C39.0608 1.27764 37.9449 0.908203 37.1758 0.908203Z" fill="#97F7E5"/>
<path d="M57.7868 32.3904C54.9378 29.5541 51.6446 32.2087 51.6446 32.2087V17.2777C51.6446 16.7763 51.2378 16.3695 50.7364 16.3695C50.2345 16.3695 49.8282 16.7763 49.8282 17.2777V33.4864C49.8282 33.4864 45.4977 36.9002 43.6363 37.7346V10.8508C43.6363 9.60102 44.6528 8.5845 45.9026 8.5845H47.5619C48.8117 8.5845 49.8282 9.60102 49.8282 10.8508V13.5598C49.8282 14.0616 50.2345 14.468 50.7364 14.468C51.2378 14.468 51.6446 14.0616 51.6446 13.5598V10.8508C51.6446 8.59963 49.8131 6.76855 47.5619 6.76855H45.9026C43.6515 6.76855 41.8199 8.59963 41.8199 10.8508V38.4546C41.2788 38.6064 40.7225 38.7095 40.1577 38.7639V19.6173C40.1577 17.3548 38.3172 15.5143 36.0552 15.5143H34.436C32.174 15.5143 30.3335 17.3548 30.3335 19.6173V28.8706L28.6712 29.7533V26.6739C28.6712 24.637 27.0142 22.98 24.9774 22.98H22.5404C20.5035 22.98 18.847 24.637 18.847 26.6739V34.9679L15.8816 36.5417L7.5545 38.9214C6.10562 39.3353 4.89563 40.2842 4.14825 41.5926C3.40087 42.9015 3.19747 44.4255 3.57684 45.8839L4.50822 49.4675C4.63452 49.9528 5.12978 50.2437 5.61557 50.1179C6.10089 49.9916 6.39228 49.4959 6.26598 49.0106L5.33459 45.4269C4.7944 43.3485 5.98879 41.2582 8.05401 40.6678L15.6673 38.4919L21.3895 53.764C21.7727 54.7867 21.7121 57.7048 18.6857 58.7795L12.9318 60.0864C10.9267 60.542 8.95087 59.3395 8.43338 57.3495L7.26548 52.8548C7.13918 52.3695 6.64345 52.0781 6.15766 52.2044C5.67233 52.3303 5.38095 52.8265 5.50725 53.3118L6.67562 57.8065C7.3317 60.3319 9.57526 61.9998 12.0719 61.9998C13.9067 61.9998 19.0878 60.5509 19.0878 60.5509C20.6644 60.1929 22.0082 59.1711 22.7755 57.7483C23.4084 56.5747 23.5962 55.2233 23.3247 53.9362L43.2295 49.0631C44.8756 48.6596 46.4385 47.8777 47.7478 46.8015L57.4344 38.8424C60.388 36.2233 58.6553 33.2546 57.7868 32.3904ZM34.436 17.3307H36.0552C37.3158 17.3307 38.3413 18.3567 38.3413 19.6173V38.8093L32.6106 38.807C32.0841 38.8022 32.4488 38.4546 32.4772 38.4309L34.1276 37.0941C35.6678 35.8468 36.6729 34.1127 37.1162 31.9391C37.3976 30.5603 36.8721 29.18 35.7444 28.337C34.6914 27.5499 33.3376 27.3986 32.1499 27.9189V19.6173C32.1499 18.3567 33.1754 17.3307 34.436 17.3307ZM20.6634 26.6739C20.6634 25.6389 21.5054 24.7965 22.5404 24.7965H24.9774C26.0129 24.7965 26.8548 25.6389 26.8548 26.6739V30.7173L20.6634 34.0039V26.6739ZM56.2817 37.4395L46.5951 45.3986C45.4944 46.303 44.1812 46.96 42.7976 47.2987L22.7461 52.2082L17.3537 37.8174L32.7506 29.6445C33.3764 29.3119 34.0893 29.3673 34.6569 29.7916C35.2241 30.2159 35.4781 30.8829 35.3366 31.5763C34.98 33.326 34.1881 34.7077 32.9843 35.6826L31.3339 37.0199C30.6575 37.5676 30.4082 38.4517 30.6986 39.2724C30.9891 40.0926 31.7393 40.6234 32.6096 40.6234L39.2273 40.6262H39.2315C41.5877 40.6262 43.8515 39.9096 45.7786 38.5544L53.1734 33.3539C54.2094 32.6255 55.6029 32.7546 56.4879 33.6595C56.9969 34.1803 57.994 35.7266 56.2817 37.4395Z" fill="black"/>
<path d="M17.9114 54.3458C17.9114 52.3728 16.3064 50.7673 14.3334 50.7673C12.3605 50.7673 10.7555 52.3728 10.7555 54.3458C10.7555 56.3183 12.3605 57.9237 14.3334 57.9237C16.3064 57.9232 17.9114 56.3183 17.9114 54.3458ZM12.5719 54.3458C12.5719 53.3742 13.3619 52.5837 14.3334 52.5837C15.305 52.5837 16.095 53.3742 16.095 54.3458C16.095 55.3169 15.305 56.1073 14.3334 56.1073C13.3619 56.1073 12.5719 55.3169 12.5719 54.3458Z" fill="black"/>
<path d="M7.80289 28.5153L21.005 15.2115L23.9742 16.7474C25.038 17.2976 26.3327 17.1093 27.1955 16.2787L34.3817 9.36115C34.3817 9.36115 34.1839 12.914 37.1758 12.914C38.716 12.914 39.9695 11.6605 39.9695 10.1199V2.79368C39.9695 2.78517 39.9695 2.77618 39.969 2.76719C39.9591 0.855701 38.5613 0 37.1758 0H29.9135C28.3728 0 27.1198 1.25351 27.1198 2.79368C27.1198 5.86456 30.2451 5.58736 30.2451 5.58736L24.7627 10.8644L21.75 9.30628C20.6606 8.74244 19.348 8.94915 18.4833 9.81951L3.83658 24.5793C2.75147 25.6729 2.75809 27.4453 3.85172 28.5305C4.37867 29.0532 6.17805 30.1397 7.80289 28.5153ZM5.12557 25.8588L19.7728 11.099C19.9615 10.9089 20.2652 10.5759 20.9156 10.9198L24.5063 12.7769C24.8521 12.9557 25.2731 12.8946 25.5536 12.6245L33.1277 5.33382C33.3945 5.07697 33.4787 4.68341 33.3401 4.34C33.2015 3.99611 32.8685 3.77142 32.4981 3.77142H29.9135C29.3747 3.77142 28.9362 3.33293 28.9362 2.79368C28.9362 2.25491 29.3747 1.81641 29.9135 1.81641H37.1758C37.4431 1.81641 38.1526 1.81641 38.1526 2.78801C38.1526 2.79605 38.1531 2.80409 38.1531 2.8126V10.1199C38.1531 10.6591 37.7146 11.0976 37.1758 11.0976C36.6366 11.0976 36.1985 10.6591 36.1985 10.1199V7.22639C36.1985 6.86216 35.981 6.53294 35.6456 6.39056C35.3107 6.2477 34.9228 6.3196 34.6603 6.5722L25.9358 14.9703C25.634 15.2607 25.1813 15.3269 24.8091 15.1344L21.2472 13.292C20.8948 13.1099 20.4648 13.1775 20.1852 13.459L6.51343 27.2358C5.91742 27.8318 5.31526 27.4241 5.13125 27.241C4.74857 26.8612 4.74621 26.241 5.12557 25.8588Z" fill="black"/>
</svg>
