<svg width="61" height="61" viewBox="0 0 61 61" fill="none" xmlns="http://www.w3.org/2000/svg">
<path d="M52.4507 53.2642H19.8342C17.1816 53.2642 15.0189 51.1014 15.0189 48.4489V6.83947C15.0189 4.1869 17.1816 2.02417 19.8342 2.02417H52.4507C55.1033 2.02417 57.266 4.1869 57.266 6.83947V48.4396C57.266 51.1014 55.1033 53.2642 52.4507 53.2642ZM19.8342 2.9022C17.6623 2.9022 15.897 4.6675 15.897 6.83947V48.4396C15.897 50.6116 17.6623 52.3769 19.8342 52.3769H52.4507C54.6227 52.3769 56.388 50.6116 56.388 48.4396V6.83947C56.388 4.6675 54.6227 2.9022 52.4507 2.9022H19.8342Z" fill="black"/>
<path d="M51.3232 48.2641L45.177 7.80077C44.7888 5.22213 42.3766 3.45683 39.8072 3.84501L8.22581 8.64183C5.64718 9.03001 3.88188 11.4423 4.27006 14.0117L10.4163 54.475C10.8045 57.0536 13.2167 58.819 15.7861 58.4308L47.3675 53.6339C49.9461 53.2458 51.7207 50.8427 51.3232 48.2641Z" fill="#F4F6F8"/>
<path d="M14.7972 58.9759C12.4588 58.9759 10.3978 57.266 10.0373 54.8815L3.78943 13.7435C3.39201 11.1186 5.20352 8.66013 7.82837 8.25347L40.0752 3.35498C42.7 2.95756 45.1585 4.76907 45.5652 7.39392L51.8131 48.5227C52.0072 49.7982 51.6929 51.0644 50.9258 52.0995C50.1587 53.1347 49.0403 53.8094 47.7741 54.0035L15.5273 58.902C15.2778 58.9574 15.0375 58.9759 14.7972 58.9759ZM40.8053 4.1868C40.6113 4.1868 40.4079 4.20529 40.2138 4.23301L7.95776 9.12225C5.80428 9.44574 4.32549 11.4606 4.64898 13.6141L10.8969 54.7429C11.054 55.7873 11.6085 56.7023 12.4588 57.3215C13.3091 57.95 14.3443 58.1995 15.3887 58.0424L47.6355 53.1439C48.6799 52.9868 49.5949 52.4323 50.2141 51.582C50.8426 50.7317 51.0922 49.6965 50.935 48.6521L44.6872 7.52332C44.4006 5.58241 42.7185 4.1868 40.8053 4.1868Z" fill="black"/>
<path d="M52.2567 52.8297H20.0284C17.5052 52.8297 15.4534 50.7779 15.4534 48.2547V7.0335C15.4534 4.51031 17.5052 2.4585 20.0284 2.4585H52.2567C54.7799 2.4585 56.8317 4.51031 56.8317 7.0335V48.2547C56.8317 50.7779 54.7799 52.8297 52.2567 52.8297Z" fill="white"/>
<path d="M52.4507 53.2642H19.8342C17.1816 53.2642 15.0189 51.1014 15.0189 48.4489V6.83947C15.0189 4.1869 17.1816 2.02417 19.8342 2.02417H52.4507C55.1033 2.02417 57.266 4.1869 57.266 6.83947V48.4396C57.266 51.1014 55.1033 53.2642 52.4507 53.2642ZM19.8342 2.9022C17.6623 2.9022 15.897 4.6675 15.897 6.83947V48.4396C15.897 50.6116 17.6623 52.3769 19.8342 52.3769H52.4507C54.6227 52.3769 56.388 50.6116 56.388 48.4396V6.83947C56.388 4.6675 54.6227 2.9022 52.4507 2.9022H19.8342Z" fill="black"/>
<path d="M45.3157 12.0245C45.3157 17.5237 36.1379 22.5609 36.1379 22.5609C36.1379 22.5609 26.9602 17.5237 26.9602 12.0245C26.9602 9.1501 29.2893 6.81177 32.1729 6.81177C33.7626 6.81177 35.186 7.52343 36.1379 8.65101C37.0899 7.52343 38.5132 6.81177 40.1029 6.81177C42.9866 6.81177 45.3157 9.14086 45.3157 12.0245Z" fill="#F76C82"/>
<path d="M45.3157 12.0245C45.3157 17.5238 36.1379 22.5609 36.1379 22.5609C36.1379 22.5609 26.9602 17.5238 26.9602 12.0245C26.9602 11.7195 26.9879 11.433 27.0341 11.1465C27.9029 16.2945 36.1379 20.8048 36.1379 20.8048C36.1379 20.8048 44.3637 16.2853 45.2417 11.1465C45.2879 11.4238 45.3157 11.7195 45.3157 12.0245Z" fill="#EB5463"/>
<path d="M36.1379 22.9953C36.0639 22.9953 35.99 22.9768 35.9253 22.9399C35.5371 22.7273 26.5258 17.7087 26.5258 12.0246C26.5258 8.90987 29.0582 6.37744 32.1729 6.37744C33.6702 6.37744 35.0935 6.96896 36.1379 8.00411C37.1915 6.95971 38.6056 6.37744 40.1029 6.37744C43.2176 6.37744 45.75 8.90987 45.75 12.0246C45.75 17.7179 36.7294 22.7365 36.3505 22.9399C36.2858 22.9768 36.2118 22.9953 36.1379 22.9953ZM32.1729 7.24623C29.5388 7.24623 27.4038 9.39047 27.4038 12.0153C27.4038 16.7382 34.7885 21.2577 36.1379 22.0434C37.4873 21.2577 44.872 16.7382 44.872 12.0153C44.872 9.38123 42.7277 7.24623 40.1029 7.24623C38.698 7.24623 37.3764 7.85623 36.4706 8.92835C36.3874 9.03002 36.2673 9.08547 36.1379 9.08547C36.0085 9.08547 35.8883 9.03002 35.8052 8.92835C34.8994 7.86547 33.5777 7.24623 32.1729 7.24623Z" fill="black"/>
<path d="M24.28 30.2781H21.6736C20.5923 30.2781 19.7142 29.4 19.7142 28.3187V25.7123C19.7142 24.631 20.5923 23.7529 21.6736 23.7529H24.28C25.3614 23.7529 26.2394 24.631 26.2394 25.7123V28.3187C26.2394 29.4 25.3614 30.2781 24.28 30.2781Z" fill="#8C9FFA"/>
<path d="M24.4833 30.7125H21.4702C20.2595 30.7125 19.2798 29.7328 19.2798 28.5221V25.5091C19.2798 24.2983 20.2595 23.3186 21.4702 23.3186H24.4833C25.694 23.3186 26.6737 24.2983 26.6737 25.5091V28.5221C26.6737 29.7328 25.694 30.7125 24.4833 30.7125ZM21.4702 24.1966C20.7493 24.1966 20.1578 24.7881 20.1578 25.5091V28.5221C20.1578 29.243 20.7493 29.8345 21.4702 29.8345H24.4833C25.2042 29.8345 25.7957 29.243 25.7957 28.5221V25.5091C25.7957 24.7881 25.2042 24.1966 24.4833 24.1966H21.4702Z" fill="black"/>
<path d="M24.28 40.0474H21.6736C20.5923 40.0474 19.7142 39.1694 19.7142 38.088V35.4909C19.7142 34.4095 20.5923 33.5315 21.6736 33.5315H24.28C25.3614 33.5315 26.2394 34.4095 26.2394 35.4909V38.0973C26.2394 39.1694 25.3614 40.0474 24.28 40.0474Z" fill="#FDCD56"/>
<path d="M24.4833 40.4911H21.4702C20.2595 40.4911 19.2798 39.5114 19.2798 38.3007V35.2876C19.2798 34.0769 20.2595 33.0972 21.4702 33.0972H24.4833C25.694 33.0972 26.6737 34.0769 26.6737 35.2876V38.3007C26.6737 39.5022 25.694 40.4911 24.4833 40.4911ZM21.4702 33.966C20.7493 33.966 20.1578 34.5575 20.1578 35.2784V38.2914C20.1578 39.0123 20.7493 39.6038 21.4702 39.6038H24.4833C25.2042 39.6038 25.7957 39.0123 25.7957 38.2914V35.2784C25.7957 34.5575 25.2042 33.966 24.4833 33.966H21.4702Z" fill="black"/>
<path d="M24.28 49.8259H21.6736C20.5923 49.8259 19.7142 48.9479 19.7142 47.8665V45.2602C19.7142 44.1788 20.5923 43.3008 21.6736 43.3008H24.28C25.3614 43.3008 26.2394 44.1788 26.2394 45.2602V47.8665C26.2394 48.9479 25.3614 49.8259 24.28 49.8259Z" fill="#F76C82"/>
<path d="M24.4833 50.2604H21.4702C20.2595 50.2604 19.2798 49.2807 19.2798 48.0699V45.0569C19.2798 43.8462 20.2595 42.8665 21.4702 42.8665H24.4833C25.694 42.8665 26.6737 43.8462 26.6737 45.0569V48.0699C26.6737 49.2807 25.694 50.2604 24.4833 50.2604ZM21.4702 43.7445C20.7493 43.7445 20.1578 44.336 20.1578 45.0569V48.0699C20.1578 48.7908 20.7493 49.3824 21.4702 49.3824H24.4833C25.2042 49.3824 25.7957 48.7908 25.7957 48.0699V45.0569C25.7957 44.336 25.2042 43.7445 24.4833 43.7445H21.4702Z" fill="black"/>
<path d="M50.6208 25.8326H30.6572C30.4169 25.8326 30.2228 25.6385 30.2228 25.3982C30.2228 25.1579 30.4169 24.9546 30.6572 24.9546H50.6208C50.8611 24.9546 51.0552 25.1487 51.0552 25.389C51.0552 25.6293 50.8611 25.8326 50.6208 25.8326Z" fill="black"/>
<path d="M43.5319 29.0768H30.6572C30.4169 29.0768 30.2228 28.8827 30.2228 28.6424C30.2228 28.4021 30.4169 28.208 30.6572 28.208H43.5319C43.7722 28.208 43.9663 28.4021 43.9663 28.6424C43.9663 28.8827 43.7722 29.0768 43.5319 29.0768Z" fill="black"/>
<path d="M50.6208 35.6112H30.6572C30.4169 35.6112 30.2228 35.4171 30.2228 35.1768C30.2228 34.9365 30.4169 34.7424 30.6572 34.7424H50.6208C50.8611 34.7424 51.0552 34.9365 51.0552 35.1768C51.0552 35.4171 50.8611 35.6112 50.6208 35.6112Z" fill="black"/>
<path d="M43.5319 38.8461H30.6572C30.4169 38.8461 30.2228 38.652 30.2228 38.4117C30.2228 38.1714 30.4169 37.9773 30.6572 37.9773H43.5319C43.7722 37.9773 43.9663 38.1714 43.9663 38.4117C43.9663 38.652 43.7722 38.8461 43.5319 38.8461Z" fill="black"/>
<path d="M50.6208 45.3803H30.6572C30.4169 45.3803 30.2228 45.1862 30.2228 44.9459C30.2228 44.7056 30.4169 44.5115 30.6572 44.5115H50.6208C50.8611 44.5115 51.0552 44.7056 51.0552 44.9459C51.0644 45.1862 50.8611 45.3803 50.6208 45.3803Z" fill="black"/>
<path d="M43.5319 48.6244H30.6572C30.4169 48.6244 30.2228 48.4303 30.2228 48.19C30.2228 47.9497 30.4169 47.7556 30.6572 47.7556H43.5319C43.7722 47.7556 43.9663 47.9497 43.9663 48.19C43.9663 48.4303 43.7722 48.6244 43.5319 48.6244Z" fill="black"/>
</svg>
